{
	"meshes":[{
		"name":"Nose",
		"primitives":[{
			"attributes":{
				"POSITION":1,
				"NORMAL":2,
				"TEXCOORD_0":3
			},
			"indices":0,
			"material":0
		}]
	},
	{
		"name":"Hair",
		"primitives":[{
			"attributes":{
				"POSITION":5,
				"NORMAL":6,
				"TEXCOORD_0":7
			},
			"indices":4,
			"material":1
		}]
	},
	{
		"name":"Teeth",
		"primitives":[{
			"attributes":{
				"POSITION":9,
				"NORMAL":10,
				"TEXCOORD_0":11
			},
			"indices":8,
			"material":2
		}]
	},
	{
		"name":"Eye-Black",
		"primitives":[{
			"attributes":{
				"POSITION":13,
				"NORMAL":14,
				"TEXCOORD_0":15
			},
			"indices":12,
			"material":0
		}]
	},
	{
		"name":"Eye-White",
		"primitives":[{
			"attributes":{
				"POSITION":17,
				"NORMAL":18,
				"TEXCOORD_0":19
			},
			"indices":16,
			"material":2
		}]
	},
	{
		"name":"Eye_2-Black",
		"primitives":[{
			"attributes":{
				"POSITION":21,
				"NORMAL":22,
				"TEXCOORD_0":23
			},
			"indices":20,
			"material":0
		}]
	},
	{
		"name":"Eye_2-White",
		"primitives":[{
			"attributes":{
				"POSITION":25,
				"NORMAL":26,
				"TEXCOORD_0":27
			},
			"indices":24,
			"material":2
		}]
	},
	{
		"name":"Body-Black",
		"primitives":[{
			"attributes":{
				"POSITION":29,
				"NORMAL":30,
				"TEXCOORD_0":31
			},
			"indices":28,
			"material":0
		}]
	},
	{
		"name":"Body-Violet",
		"primitives":[{
			"attributes":{
				"POSITION":33,
				"NORMAL":34,
				"TEXCOORD_0":35
			},
			"indices":32,
			"material":3
		}]
	}],
	"asset":{
		"version":"2.0",
		"generator":"Created using the official Cinema 4D glTF Exporter 1.000x284978"
	},
	"scenes":[{
		"nodes":[0]
	}],
	"accessors":[{
		"bufferView":0,
		"type":"SCALAR",
		"componentType":5123,
		"count":390,
		"byteOffset":0,
		"min":[0],
		"max":[103]
	},
	{
		"bufferView":1,
		"type":"VEC3",
		"componentType":5126,
		"count":104,
		"byteOffset":0,
		"min":[-2.9050495624542238,
		-2.9050495624542238,
		-2.9050495624542238],
		"max":[2.9050495624542238,
		2.9050495624542238,
		-0.42274680733680727]
	},
	{
		"bufferView":1,
		"type":"VEC3",
		"componentType":5126,
		"count":104,
		"byteOffset":12,
		"min":[-0.9277264475822449,
		-0.9277264475822449,
		-0.9691706895828247],
		"max":[0.9277265071868897,
		0.9277265071868897,
		-0.26756834983825686]
	},
	{
		"bufferView":1,
		"type":"VEC2",
		"componentType":5126,
		"count":104,
		"byteOffset":24,
		"min":[0.0,
		0.0],
		"max":[1.0,
		1.0]
	},
	{
		"bufferView":2,
		"type":"SCALAR",
		"componentType":5123,
		"count":7776,
		"byteOffset":0,
		"min":[0],
		"max":[1499]
	},
	{
		"bufferView":3,
		"type":"VEC3",
		"componentType":5126,
		"count":1500,
		"byteOffset":0,
		"min":[-2.2146852016448976,
		-6.708132266998291,
		-26.23484230041504],
		"max":[3.6452672481536867,
		2.490467071533203,
		6.799410343170166]
	},
	{
		"bufferView":3,
		"type":"VEC3",
		"componentType":5126,
		"count":1500,
		"byteOffset":12,
		"min":[-0.9960882663726807,
		-0.9966592192649841,
		-0.9963613748550415],
		"max":[0.9991239905357361,
		0.9678661227226257,
		0.9963613152503967]
	},
	{
		"bufferView":3,
		"type":"VEC2",
		"componentType":5126,
		"count":1500,
		"byteOffset":24,
		"min":[0.0,
		0.0],
		"max":[1.0,
		1.0]
	},
	{
		"bufferView":4,
		"type":"SCALAR",
		"componentType":5123,
		"count":3552,
		"byteOffset":0,
		"min":[0],
		"max":[699]
	},
	{
		"bufferView":5,
		"type":"VEC3",
		"componentType":5126,
		"count":700,
		"byteOffset":0,
		"min":[-5.277645111083984,
		-19.9393367767334,
		-12.543224334716797],
		"max":[6.731511116027832,
		1.5403499603271485,
		3.2967991828918459]
	},
	{
		"bufferView":5,
		"type":"VEC3",
		"componentType":5126,
		"count":700,
		"byteOffset":12,
		"min":[-0.999909520149231,
		-0.9988583326339722,
		-0.9980228543281555],
		"max":[1.0,
		0.4042813181877136,
		0.9984122514724731]
	},
	{
		"bufferView":5,
		"type":"VEC2",
		"componentType":5126,
		"count":700,
		"byteOffset":24,
		"min":[0.0,
		0.0],
		"max":[1.0,
		1.0]
	},
	{
		"bufferView":6,
		"type":"SCALAR",
		"componentType":5123,
		"count":1440,
		"byteOffset":0,
		"min":[0],
		"max":[294]
	},
	{
		"bufferView":7,
		"type":"VEC3",
		"componentType":5126,
		"count":295,
		"byteOffset":0,
		"min":[-3.7608063220977785,
		2.378025531768799,
		-3.7641444206237795],
		"max":[3.7674825191497804,
		4.70265007019043,
		3.7641444206237795]
	},
	{
		"bufferView":7,
		"type":"VEC3",
		"componentType":5126,
		"count":295,
		"byteOffset":12,
		"min":[-0.8986875414848328,
		0.4194687604904175,
		-0.9031875133514404],
		"max":[0.9077187776565552,
		0.9999688267707825,
		0.9031875133514404]
	},
	{
		"bufferView":7,
		"type":"VEC2",
		"componentType":5126,
		"count":295,
		"byteOffset":24,
		"min":[0.0,
		0.03125],
		"max":[1.0,
		0.3385165333747864]
	},
	{
		"bufferView":8,
		"type":"SCALAR",
		"componentType":5123,
		"count":2400,
		"byteOffset":0,
		"min":[0],
		"max":[459]
	},
	{
		"bufferView":9,
		"type":"VEC3",
		"componentType":5126,
		"count":460,
		"byteOffset":0,
		"min":[-4.559386253356934,
		-4.7004313468933109,
		-4.559386253356934],
		"max":[4.559386253356934,
		2.378025531768799,
		4.559386253356934]
	},
	{
		"bufferView":9,
		"type":"VEC3",
		"componentType":5126,
		"count":460,
		"byteOffset":12,
		"min":[-1.0,
		-0.9999688267707825,
		-1.0],
		"max":[1.0,
		0.850031316280365,
		1.0]
	},
	{
		"bufferView":9,
		"type":"VEC2",
		"componentType":5126,
		"count":460,
		"byteOffset":24,
		"min":[0.0,
		0.3385165333747864],
		"max":[1.0,
		0.96875]
	},
	{
		"bufferView":10,
		"type":"SCALAR",
		"componentType":5123,
		"count":1440,
		"byteOffset":0,
		"min":[0],
		"max":[294]
	},
	{
		"bufferView":11,
		"type":"VEC3",
		"componentType":5126,
		"count":295,
		"byteOffset":0,
		"min":[-3.7608063220977785,
		2.378025531768799,
		-3.7641444206237795],
		"max":[3.7674825191497804,
		4.70265007019043,
		3.7641444206237795]
	},
	{
		"bufferView":11,
		"type":"VEC3",
		"componentType":5126,
		"count":295,
		"byteOffset":12,
		"min":[-0.8986875414848328,
		0.4194687604904175,
		-0.9031875133514404],
		"max":[0.9077187776565552,
		0.9999688267707825,
		0.9031875133514404]
	},
	{
		"bufferView":11,
		"type":"VEC2",
		"componentType":5126,
		"count":295,
		"byteOffset":24,
		"min":[0.0,
		0.03125],
		"max":[1.0,
		0.3385165333747864]
	},
	{
		"bufferView":12,
		"type":"SCALAR",
		"componentType":5123,
		"count":2400,
		"byteOffset":0,
		"min":[0],
		"max":[459]
	},
	{
		"bufferView":13,
		"type":"VEC3",
		"componentType":5126,
		"count":460,
		"byteOffset":0,
		"min":[-4.559386253356934,
		-4.7004313468933109,
		-4.559386253356934],
		"max":[4.559386253356934,
		2.378025531768799,
		4.559386253356934]
	},
	{
		"bufferView":13,
		"type":"VEC3",
		"componentType":5126,
		"count":460,
		"byteOffset":12,
		"min":[-1.0,
		-0.9999688267707825,
		-1.0],
		"max":[1.0,
		0.850031316280365,
		1.0]
	},
	{
		"bufferView":13,
		"type":"VEC2",
		"componentType":5126,
		"count":460,
		"byteOffset":24,
		"min":[0.0,
		0.3385165333747864],
		"max":[1.0,
		0.96875]
	},
	{
		"bufferView":14,
		"type":"SCALAR",
		"componentType":5123,
		"count":1272,
		"byteOffset":0,
		"min":[0],
		"max":[257]
	},
	{
		"bufferView":15,
		"type":"VEC3",
		"componentType":5126,
		"count":258,
		"byteOffset":0,
		"min":[-2962.74462890625,
		7051.5771484375,
		-353.16400146484377],
		"max":[-2657.32958984375,
		7667.4912109375,
		353.16400146484377]
	},
	{
		"bufferView":15,
		"type":"VEC3",
		"componentType":5126,
		"count":258,
		"byteOffset":12,
		"min":[-0.995187520980835,
		-0.7310000061988831,
		-0.8587188124656677],
		"max":[-0.024812500923871995,
		0.639718770980835,
		0.8595625162124634]
	},
	{
		"bufferView":15,
		"type":"VEC2",
		"componentType":5126,
		"count":258,
		"byteOffset":24,
		"min":[0.001571965403854847,
		0.18856388330459596],
		"max":[0.6314191818237305,
		0.6719152927398682]
	},
	{
		"bufferView":16,
		"type":"SCALAR",
		"componentType":5123,
		"count":24936,
		"byteOffset":0,
		"min":[0],
		"max":[4577]
	},
	{
		"bufferView":17,
		"type":"VEC3",
		"componentType":5126,
		"count":4578,
		"byteOffset":0,
		"min":[-3467.70166015625,
		-21.46208953857422,
		-5871.892578125],
		"max":[11565.765625,
		10111.83203125,
		5871.892578125]
	},
	{
		"bufferView":17,
		"type":"VEC3",
		"componentType":5126,
		"count":4578,
		"byteOffset":12,
		"min":[-0.9998437762260437,
		-0.9999688267707825,
		-0.9996563196182251],
		"max":[0.9999688267707825,
		0.9971563220024109,
		0.9996563196182251]
	},
	{
		"bufferView":17,
		"type":"VEC2",
		"componentType":5126,
		"count":4578,
		"byteOffset":24,
		"min":[0.006073487922549248,
		0.0040397047996521],
		"max":[0.8671972751617432,
		0.9980446100234985]
	}],
	"nodes":[{
		"name":"Walrus_LOD1",
		"children":[1,
		15]
	},
	{
		"rotation":[0.0,
		0.0,
		0.0,
		-1.0],
		"name":"Details",
		"translation":[0.0,
		83.83313751220703,
		0.0],
		"scale":[1.0,
		1.0,
		1.0],
		"children":[2,
		3,
		4,
		5,
		10]
	},
	{
		"rotation":[-0.272256463766098,
		-0.6525920629501343,
		0.272256463766098,
		-0.6525920629501343],
		"name":"Nose",
		"translation":[-30.367162704467775,
		2.329777479171753,
		-1.859452465591792e-15],
		"scale":[1.0,
		1.0,
		1.0],
		"mesh":0
	},
	{
		"rotation":[0.0,
		0.0,
		0.0,
		-1.0],
		"name":"Hair",
		"translation":[-28.297134399414064,
		-1.3438503742218018,
		9.7177152633667],
		"scale":[1.0,
		1.0,
		1.0],
		"mesh":1
	},
	{
		"rotation":[-0.011325852014124394,
		-0.21053838729858399,
		0.05250948294997215,
		-0.9761086106300354],
		"name":"Teeth",
		"translation":[-25.734121322631837,
		-2.570420265197754,
		4.389521598815918],
		"scale":[1.0,
		1.0,
		1.0],
		"mesh":2
	},
	{
		"rotation":[0.9533045887947083,
		-0.042223285883665088,
		-0.22855475544929505,
		-0.1928478479385376],
		"name":"Eye_R_Pivot",
		"translation":[-12.091294288635254,
		4.161727428436279,
		-14.346946716308594],
		"scale":[1.0,
		-1.0,
		1.0],
		"children":[6]
	},
	{
		"rotation":[-5.4069302631683998e-17,
		0.0,
		0.0,
		-1.0],
		"name":"Eye_R_Trans",
		"translation":[0.49569031596183779,
		0.34387853741645815,
		0.25322532653808596],
		"scale":[1.3300000429153443,
		1.8799999952316285,
		0.7699999809265137],
		"children":[7]
	},
	{
		"rotation":[-0.7071067690849304,
		0.0,
		0.0,
		-0.7071067690849304],
		"name":"Eye",
		"translation":[0.0,
		2.1316282072803007e-14,
		4.263256414560601e-14],
		"scale":[1.0,
		1.0,
		1.0],
		"children":[8,
		9]
	},
	{
		"name":"Eye-Black",
		"mesh":3
	},
	{
		"name":"Eye-White",
		"mesh":4
	},
	{
		"rotation":[0.1928478479385376,
		0.22855475544929505,
		0.042223285883665088,
		-0.9533045887947083],
		"name":"Eye_L_Pivot",
		"translation":[-12.091294288635254,
		4.161727428436279,
		14.346946716308594],
		"scale":[1.0,
		1.0,
		1.0],
		"children":[11]
	},
	{
		"rotation":[0.0,
		0.0,
		0.0,
		-1.0],
		"name":"Eye_L_Trans",
		"translation":[0.49569031596183779,
		0.34387853741645815,
		0.25322532653808596],
		"scale":[1.3300000429153443,
		1.8799999952316285,
		0.7699999809265137],
		"children":[12]
	},
	{
		"rotation":[-0.7071067690849304,
		0.0,
		0.0,
		-0.7071067690849304],
		"name":"Eye_2",
		"translation":[-5.3290705182007517e-15,
		1.4210854715202005e-14,
		2.842170943040401e-14],
		"scale":[1.0,
		1.0,
		1.0],
		"children":[13,
		14]
	},
	{
		"name":"Eye_2-Black",
		"mesh":5
	},
	{
		"name":"Eye_2-White",
		"mesh":6
	},
	{
		"rotation":[0.0,
		0.0,
		0.0,
		-1.0],
		"name":"Body",
		"translation":[0.0,
		0.0,
		0.0],
		"scale":[0.009999999776482582,
		0.009999999776482582,
		0.009999999776482582],
		"children":[16,
		17]
	},
	{
		"name":"Body-Black",
		"mesh":7
	},
	{
		"name":"Body-Violet",
		"mesh":8
	}],
	"bufferViews":[{
		"buffer":0,
		"byteOffset":0,
		"byteLength":780,
		"target":34963
	},
	{
		"buffer":0,
		"byteOffset":780,
		"byteLength":3328,
		"target":34962,
		"byteStride":32
	},
	{
		"buffer":1,
		"byteOffset":0,
		"byteLength":15552,
		"target":34963
	},
	{
		"buffer":1,
		"byteOffset":15552,
		"byteLength":48000,
		"target":34962,
		"byteStride":32
	},
	{
		"buffer":2,
		"byteOffset":0,
		"byteLength":7104,
		"target":34963
	},
	{
		"buffer":2,
		"byteOffset":7104,
		"byteLength":22400,
		"target":34962,
		"byteStride":32
	},
	{
		"buffer":3,
		"byteOffset":0,
		"byteLength":2880,
		"target":34963
	},
	{
		"buffer":3,
		"byteOffset":2880,
		"byteLength":9440,
		"target":34962,
		"byteStride":32
	},
	{
		"buffer":4,
		"byteOffset":0,
		"byteLength":4800,
		"target":34963
	},
	{
		"buffer":4,
		"byteOffset":4800,
		"byteLength":14720,
		"target":34962,
		"byteStride":32
	},
	{
		"buffer":5,
		"byteOffset":0,
		"byteLength":2880,
		"target":34963
	},
	{
		"buffer":5,
		"byteOffset":2880,
		"byteLength":9440,
		"target":34962,
		"byteStride":32
	},
	{
		"buffer":6,
		"byteOffset":0,
		"byteLength":4800,
		"target":34963
	},
	{
		"buffer":6,
		"byteOffset":4800,
		"byteLength":14720,
		"target":34962,
		"byteStride":32
	},
	{
		"buffer":7,
		"byteOffset":0,
		"byteLength":2544,
		"target":34963
	},
	{
		"buffer":7,
		"byteOffset":2544,
		"byteLength":8256,
		"target":34962,
		"byteStride":32
	},
	{
		"buffer":8,
		"byteOffset":0,
		"byteLength":49872,
		"target":34963
	},
	{
		"buffer":8,
		"byteOffset":49872,
		"byteLength":146496,
		"target":34962,
		"byteStride":32
	}],
	"buffers":[{
		"uri":"data:application/octet-stream;base64,",
		"byteLength":4108
	},
	{
		"uri":"data:application/octet-stream;base64,",
		"byteLength":63552
	},
	{
		"uri":"data:application/octet-stream;base64,",
		"byteLength":29504
	},
	{
		"uri":"data:application/octet-stream;base64,",
		"byteLength":12320
	},
	{
		"uri":"data:application/octet-stream;base64,",
		"byteLength":19520
	},
	{
		"uri":"data:application/octet-stream;base64,",
		"byteLength":12320
	},
	{
		"uri":"data:application/octet-stream;base64,",
		"byteLength":19520
	},
	{
		"uri":"data:application/octet-stream;base64,",
		"byteLength":10800
	},
	{
		"uri":"data:application/octet-stream;base64,",
		"byteLength":196368
	}],
	"materials":[{
		"pbrMetallicRoughness":{
			"baseColorFactor":[0.12999999523162843,
			0.12999999523162843,
			0.12999999523162843,
			1.0],
			"metallicFactor":0.0,
			"roughnessFactor":0.5
		},
		"emissiveFactor":[0.0,
		0.0,
		0.0],
		"alphaMode":"OPAQUE",
		"doubleSided":false,
		"name":"Black"
	},
	{
		"pbrMetallicRoughness":{
			"baseColorFactor":[0.7400000095367432,
			0.5827500224113464,
			0.3625999987125397,
			1.0],
			"metallicFactor":0.0,
			"roughnessFactor":0.5
		},
		"emissiveFactor":[0.0,
		0.0,
		0.0],
		"alphaMode":"OPAQUE",
		"doubleSided":false,
		"name":"Orange"
	},
	{
		"pbrMetallicRoughness":{
			"baseColorFactor":[0.800000011920929,
			0.800000011920929,
			0.800000011920929,
			1.0],
			"metallicFactor":0.0,
			"roughnessFactor":0.5
		},
		"emissiveFactor":[0.0,
		0.0,
		0.0],
		"alphaMode":"OPAQUE",
		"doubleSided":false,
		"name":"White"
	},
	{
		"pbrMetallicRoughness":{
			"baseColorFactor":[0.3625999987125397,
			0.3625999987125397,
			0.7400000095367432,
			1.0],
			"metallicFactor":0.0,
			"roughnessFactor":0.5
		},
		"emissiveFactor":[0.0,
		0.0,
		0.0],
		"alphaMode":"OPAQUE",
		"doubleSided":false,
		"name":"Violet"
	}]
}